<svg width="43" height="68" viewBox="0 0 43 68" fill="none" xmlns="http://www.w3.org/2000/svg">
<g clip-path="url(#clip0_2791_28)">
<path d="M17.3414 17.9734H11.4194V67.4653H17.3414V17.9734Z" fill="white"/>
<path d="M31.0079 17.9734H25.0859V67.4653H31.0079V17.9734Z" fill="white"/>
<path d="M42.0074 36.9948H0.92041V43.0365H42.0074V36.9948Z" fill="white"/>
<path d="M13.7972 8.76823C16.1708 8.76823 18.0949 6.80518 18.0949 4.38363C18.0949 1.96208 16.1708 -0.000976562 13.7972 -0.000976562C11.4237 -0.000976562 9.49951 1.96208 9.49951 4.38363C9.49951 6.80518 11.4237 8.76823 13.7972 8.76823Z" fill="white"/>
<path d="M27.4637 8.76823C29.8373 8.76823 31.7614 6.80518 31.7614 4.38363C31.7614 1.96208 29.8373 -0.000976562 27.4637 -0.000976562C25.0902 -0.000976562 23.166 1.96208 23.166 4.38363C23.166 6.80518 25.0902 8.76823 27.4637 8.76823Z" fill="white"/>
</g>
<defs>
<clipPath id="clip0_2791_28">
<rect width="42" height="68" fill="white" transform="translate(0.5)"/>
</clipPath>
</defs>
</svg>
