<svg width="950" height="705" viewBox="0 0 950 705" fill="none" xmlns="http://www.w3.org/2000/svg">
<path fill-rule="evenodd" clip-rule="evenodd" d="M125.971 102.59C125.988 93.643 127.312 86.8561 118.909 84.3933C110.113 81.8162 108.452 88.5705 105.526 94.1202C104.079 96.861 102.837 100.724 98.5497 100.209C94.1107 99.6826 92.6515 96.37 92.0162 92.3722C91.6268 89.9262 91.9588 86.6756 88.8436 85.8268C85.2244 84.8429 83.7897 88.0608 81.9616 90.3304C66.5048 109.511 54.2615 130.668 44.2726 153.055C38.0956 166.906 32.5867 181.187 30.9308 196.455C28.6395 217.609 44.7234 229.357 64.3366 220.97C75.9282 216.012 85.2489 207.955 92.1515 197.668C112.002 168.087 121.294 134.744 125.971 102.59ZM159.607 93.6913C156.458 148.592 142.112 200.135 112.629 247.063C104.821 259.49 93.7787 268.894 81.9042 277.278C74.5755 282.456 66.1154 279.761 58.0735 280.201C55.606 280.336 48.4043 273.313 50.0274 283.869C50.1258 284.527 45.9531 283.947 43.9693 283.044C30.8119 277.042 19.9786 268.731 13.3795 255.276C-5.45077 216.877 -3.43412 178.602 13.359 140.33C28.0902 106.763 46.8631 76.0664 74.9689 51.5284C89.1798 39.1229 106.944 36.5339 123.864 32.8869C138.166 29.8038 152.573 43.2755 156.287 59.316C158.893 70.574 159.32 82.0774 159.607 93.6913Z" fill="#202020"/>
<path fill-rule="evenodd" clip-rule="evenodd" d="M843.1 43.521C834.721 70.8363 835.624 95.6641 848.408 119.321C857.872 136.835 870.541 137.644 883.441 122.188C892.868 110.892 898.431 97.5383 902.817 83.6628C909.403 62.8278 901.91 48.4741 881.465 40.9931C873.243 37.9832 868.492 39.9234 866.919 48.1803C865.558 55.3261 862.873 61.9711 854.982 61.6359C846.162 61.2563 846.83 52.5498 845.125 46.3594C845.035 46.0281 844.71 45.755 843.1 43.521ZM809.19 100.07C808.555 56.1967 820.331 20.9182 843.296 -10.7624C848.33 -17.7168 853.987 -24.1975 861.442 -28.6812C871.911 -34.9822 883.457 -31.5601 886.659 -20.1425C888.454 -13.723 891.602 -12.3631 897.237 -11.3994C922.609 -7.06267 941.838 11.3421 942.633 36.5172C944.284 88.6859 927.996 135.81 892.237 174.062C866.262 201.842 837.783 195.231 821.45 160.512C811.76 139.91 809.21 117.875 809.19 100.07Z" fill="#202020"/>
<path fill-rule="evenodd" clip-rule="evenodd" d="M556.885 189.373C557.406 198.251 559.435 208.492 568.891 212.996C577.572 217.133 584.425 209.554 589.959 203.853C612.736 180.401 626.898 152.118 634.813 120.665C636.87 112.503 631.768 108.5 624.594 106.096C617.807 103.817 613.36 105.038 610.593 112.311C608.822 116.962 606.314 122.593 599.764 121.67C594.058 120.866 595.218 114.896 593.583 111.118C592.751 109.203 593.422 106.287 590.607 105.826C588.11 105.418 586.348 107.545 585.401 109.371C572.42 134.387 559.66 159.505 556.885 189.373ZM671.62 104.336C669.739 144.387 654.528 180.552 638.022 216.3C628.234 237.489 615.836 256.27 594.197 267.843C575.158 278.028 557.476 274.593 546.925 255.343C530.329 225.051 523.82 192.934 534.075 158.925C543.023 129.246 556.693 102.057 577.367 78.5765C580.532 74.9869 584.557 71.3075 588.504 72.3979C597.087 74.766 600.362 68.6939 603.379 63.9448C611.548 51.0611 623.423 47.9782 637.071 50.3099C652.151 52.886 664.247 60.159 669.395 75.7381C672.481 85.0736 673.006 94.6043 671.62 104.336Z" fill="#202020"/>
<path fill-rule="evenodd" clip-rule="evenodd" d="M820.434 314.418C817.114 317.706 816.957 321.14 816.322 324.375C815.601 328.037 812.962 330.108 809.969 328.344C802.596 323.986 799.033 329.242 794.976 333.375C784.023 344.518 774.149 356.807 766.816 370.372C758.864 385.073 750.446 400.256 752.597 418.297C753.934 429.515 754.975 441.835 767.456 445.547C780.244 449.349 789.909 441.014 798.291 432.111C798.796 431.577 799.123 430.883 799.599 430.315C817.876 408.325 826.037 381.663 832.582 354.817C836.112 340.333 832.21 325.734 820.434 314.418ZM868.775 326.003C867.988 360.567 856.483 392.179 843.527 423.769C834.587 445.571 822.618 464.85 807.338 482.467C793.959 497.883 766.554 504.041 747.74 493.031C740.694 488.907 739.444 479.784 731.75 476.68C740.694 466.998 727.192 462.955 726.389 455.589C723.114 425.7 724.048 396.968 738.128 368.914C751.908 341.443 769.939 318.314 794.475 300.06C797.205 298.026 797.918 295.781 798.222 292.62C798.644 288.25 799.222 283.686 800.89 279.684C810.478 256.656 826.516 252.903 845.228 269.437C862.173 284.412 869.391 303.667 868.775 326.003Z" fill="#202020"/>
<path fill-rule="evenodd" clip-rule="evenodd" d="M227.958 347.279C228.41 352.955 227.495 359.469 233.303 362.306C238.714 364.948 243.047 360.159 247.084 357.075C252.737 352.755 257.376 347.348 261.143 341.362C276.12 317.55 285.991 291.811 290.319 263.961C291.413 256.897 291.557 248.141 284.58 246.81C277.211 245.405 266.631 243.69 262.123 254.683C260.868 257.746 259.299 260.796 257.303 263.426C238.477 288.304 234.152 318.097 227.958 347.279ZM319.224 258.836C316.776 297.243 305.415 335.886 284.56 371.735C281.953 376.207 278.792 380.356 276.178 384.823C265.598 402.886 248.9 410.027 228.913 410.517C222.011 410.685 218.163 405.237 215.047 399.504C203.775 378.755 200.902 356.606 205.505 333.844C214.629 288.744 231.602 246.708 257.2 208.241C261.774 201.359 267.652 195.716 273.673 190.313C280.478 184.213 286.269 186.52 288.572 195.487C289.36 198.562 289.134 202.131 293.438 203.307C310.604 208.003 312.895 223.489 317.155 237.087C318.986 242.951 318.433 249.554 319.224 258.836Z" fill="#202020"/>
<path fill-rule="evenodd" clip-rule="evenodd" d="M391.465 526.225C400.606 518.132 403.729 508.343 408.616 499.384C417.592 482.902 421.654 465.4 424.126 447.236C424.535 444.214 424.367 440.981 420.773 439.914C417.26 438.873 415.432 441.785 413.866 444.112C412.447 446.227 412.342 450.082 410.566 450.94C404.569 453.847 408.636 468.524 395.811 463.285C394.171 462.619 392.646 465.568 394.597 467.009C403.115 473.285 397.684 480.162 395.359 486.504C390.806 498.946 387.535 511.353 391.465 526.225ZM382.604 576.078C394.835 570.382 389.818 564.472 382.735 561.786C366.549 555.636 365.536 540.792 362.568 527.916C360.671 519.684 362.27 510.051 364.438 501.589C374.247 463.293 391.913 428.391 413.165 395.264C416.661 389.809 422.818 386.251 426.322 380.412C427.839 377.893 430.774 376.263 434.07 377.374C437.324 378.473 438.275 380.763 437.914 384.324C437.246 390.964 440.148 395.974 445.05 400.782C458.552 414.003 457.289 431.771 455.863 447.991C452.228 489.412 438.209 527.802 415.514 562.696C408.603 573.325 398.962 581.485 382.604 576.078Z" fill="#202020"/>
<path fill-rule="evenodd" clip-rule="evenodd" d="M357.288 31.3041C356.415 28.2822 355.541 25.2563 354.271 20.846C344.548 33.1091 338.003 45.8211 334.035 59.6611C331.408 68.828 338.581 76.7585 348.197 76.2528C357.887 75.746 365.055 70.3886 370.249 62.7765C383.946 42.6928 390.05 19.5433 393.567 -3.85566C394.612 -10.8305 393.776 -20.2677 389.423 -27.9653C385.66 -34.6093 393.272 -51.3561 401.13 -53.8757C410.967 -57.0323 415.635 -49.9473 418.984 -42.801C425.587 -28.7248 423.279 -13.448 421.927 1.04051C418.861 33.8033 408.966 64.773 391.993 93.2279C384.438 105.895 375.77 117.537 359.678 119.84C332.261 123.757 321.017 120.886 313.893 93.4439C304.503 57.2841 324.411 7.11689 355.357 -14.5711C358.784 -16.9763 362.248 -19.0058 366.703 -17.2866C371.785 -15.3306 371.048 -10.6793 371.22 -6.87349C371.86 7.29662 365.49 19.3759 360.099 31.7083C359.161 31.5737 358.226 31.4389 357.288 31.3041Z" fill="#202020"/>
<path fill-rule="evenodd" clip-rule="evenodd" d="M546.953 703.857C538.177 704.614 531.759 701.183 531.369 692.836C530.688 678.09 527.393 664.344 531.705 648.202C538.96 621.042 550.104 596.606 565.43 573.889C572.198 563.864 569.439 552.719 573.71 542.699C577.267 534.352 581.456 526.736 588.044 520.496C592.31 516.453 596.852 513.423 602.935 516.906C608.644 520.174 611.03 523.767 611.386 531.636C613.617 580.868 594.909 624.759 578.247 669.27C574.558 679.111 568.672 687.584 562.537 696.014C558.417 701.665 553.437 704.54 546.953 703.857Z" fill="#202020"/>
</svg>
