<svg width="14" height="14" viewBox="0 0 14 14" fill="none" xmlns="http://www.w3.org/2000/svg">
<path fill-rule="evenodd" clip-rule="evenodd" d="M0.932193 1.21222C0.436014 1.7084 0.436014 2.51255 0.932193 3.00875L4.70452 6.78071C4.90299 6.97918 4.90299 7.30099 4.70452 7.49946L0.932193 11.2718C0.436014 11.7676 0.436014 12.5721 0.932193 13.068C1.42837 13.5641 2.23252 13.5641 2.72872 13.068L6.50069 9.29562C6.69916 9.09751 7.02096 9.09751 7.21943 9.29562L10.9918 13.068C11.4876 13.5641 12.2921 13.5641 12.7879 13.068C13.2841 12.5721 13.2841 11.7676 12.7879 11.2718L9.0156 7.49946C8.81748 7.30099 8.81748 6.97918 9.0156 6.78071L12.7879 3.00875C13.2841 2.51257 13.2841 1.70842 12.7879 1.21222C12.2921 0.716043 11.4876 0.716043 10.9918 1.21222L7.21943 4.98455C7.02096 5.18302 6.69916 5.18302 6.50069 4.98455L2.72872 1.21222C2.23254 0.716043 1.42839 0.716043 0.932193 1.21222Z" fill="white"/>
</svg>
