<svg width="29" height="48" viewBox="0 0 29 48" fill="none" xmlns="http://www.w3.org/2000/svg">
<g clip-path="url(#clip0_2791_163)">
<path d="M11.6286 12.6871H7.53955V47.6226H11.6286V12.6871Z" fill="white"/>
<path d="M21.0649 12.6871H16.9759V47.6226H21.0649V12.6871Z" fill="white"/>
<path d="M28.6598 26.114H0.290192V30.3788H28.6598V26.114Z" fill="white"/>
<path d="M9.1812 6.18942C10.8201 6.18942 12.1487 4.80373 12.1487 3.0944C12.1487 1.38507 10.8201 -0.000610352 9.1812 -0.000610352C7.54232 -0.000610352 6.21375 1.38507 6.21375 3.0944C6.21375 4.80373 7.54232 6.18942 9.1812 6.18942Z" fill="white"/>
<path d="M18.6176 6.18942C20.2565 6.18942 21.585 4.80373 21.585 3.0944C21.585 1.38507 20.2565 -0.000610352 18.6176 -0.000610352C16.9787 -0.000610352 15.6501 1.38507 15.6501 3.0944C15.6501 4.80373 16.9787 6.18942 18.6176 6.18942Z" fill="white"/>
</g>
<defs>
<clipPath id="clip0_2791_163">
<rect width="29" height="48" fill="white"/>
</clipPath>
</defs>
</svg>
