<svg width="247" height="322" viewBox="0 0 247 322" fill="none" xmlns="http://www.w3.org/2000/svg">
<g clip-path="url(#clip0_254_4347)">
<path fill-rule="evenodd" clip-rule="evenodd" d="M103.656 165.767C98.9759 165.631 96.0279 162.944 93.4335 160.114C86.1506 152.166 78.7644 144.399 72.857 135.168C70.1445 130.924 68.4346 127.839 69.8703 122.663C80.4822 138.04 89.9155 153.531 103.656 165.767ZM172.254 7.24547C178.027 12.7381 183.682 18.3587 189.599 23.6959C201.929 34.82 212.225 47.527 220.412 61.9342C221.193 63.3126 223.275 64.9147 220.746 66.1354C218.755 67.0969 217.875 65.0943 216.996 63.5199C207.513 46.5461 195.669 31.3654 180.265 19.4185C175.426 15.6668 170.985 11.8689 166.908 7.3436C162.924 2.91902 150.307 6.48261 148.113 12.234C147.365 14.1956 148.208 16.4243 149.633 16.6994C158.319 18.3886 161.856 26.78 168.741 30.9839C173.487 33.88 174.421 41.5113 178.936 45.7724C180.391 47.1483 181.391 52.0959 184.361 46.8513C185.03 45.6716 186.273 45.974 186.082 47.2981C185.487 51.3521 190.304 50.9244 191.414 54.2074C181.862 54.4989 187.17 58.2639 188.986 62.2144C191.737 68.2137 193.893 74.5645 195.548 80.9593C198.03 90.5521 204.6 98.9241 204.866 109.011C205.422 130.016 207.587 151.406 194.762 170.287C193.214 172.57 191.783 174.861 188.6 175.095C163.738 176.924 139.291 176.207 117.182 162.667C100.938 152.719 89.7924 138.01 79.6545 122.349C67.0239 102.845 63.0841 81.1497 62.6674 58.4605C62.5715 53.292 62.651 47.8539 57.5054 44.5082C55.6508 43.304 53.426 41.4895 51.3959 42.3396C49.3187 43.2114 49.3795 46.0503 49.1626 48.2408C49.0008 49.87 50.1271 51.6409 48.6505 53.1585C46.1765 53.6924 45.9625 51.3739 44.8391 50.276C43.3404 48.8184 42.8391 45.8541 39.899 46.5788C37.2661 47.2272 37.0361 49.6357 36.5922 51.8698C36.4389 52.6435 37.4443 54.9757 35.1486 54.0139C25.1918 49.8482 25.3014 60.2259 23.0164 63.8984C18.0707 71.8427 20.12 81.9044 21.8873 90.6419C28.3811 122.775 46.2776 148.837 66.4131 174.183C72.2842 181.577 77.6545 189.045 85.789 192.537C93.8389 195.997 100.691 203.967 110.96 201.362C116.95 209.067 126.197 204.452 133.773 206.901C142.326 209.664 152.401 208.645 161.722 207.991C178.232 206.833 193.948 202.25 208.513 194.241C222.251 186.688 229.98 173.918 236.66 160.623C241.052 151.877 244.764 142.753 246.101 132.789C250.197 102.278 239.934 76.0688 222.653 51.6655C213.606 38.8931 204.189 26.5376 191.526 17.0673C185.868 12.8361 180.251 8.46608 173.742 5.56994C173.243 6.12847 172.75 6.687 172.254 7.24547Z" fill="#202020"/>
<path fill-rule="evenodd" clip-rule="evenodd" d="M-74.7008 262.725C-70.1269 268.915 -65.553 275.109 -60.9791 281.299C-68.3648 277.101 -72.5509 270.634 -74.7008 262.725ZM-87.8781 239.116C-92.2164 237.402 -92.8022 233.374 -94.868 230.6C-96.3651 228.591 -96.8748 224.888 -100.617 226.307C-104.412 227.744 -102.229 230.814 -101.991 233.307C-101.926 234.008 -101.98 234.719 -101.98 235.532C-105.733 235.919 -105.508 229.433 -109.48 231.273C-112.498 232.668 -113.151 237.933 -114.423 238.525C-123.28 242.645 -113.433 247.802 -116.063 252.009C-118.533 252.035 -116.944 247.656 -119.85 247.907C-102.037 304.546 -67.7488 328.504 -12.2717 320.062C23.5861 314.602 46.2233 293.927 56.6865 260.451C64.0529 236.882 55.7509 215.42 41.8118 196.038C40.2149 193.816 37.9646 190.89 34.4778 193.074C28.7214 196.671 19.3482 196.277 19.367 206.43C19.3914 220.178 21.8234 233.858 20.6114 247.634C19.3641 261.853 15.2461 275.011 5.9104 286.177C3.95583 288.519 1.70266 290.435 -1.45598 290.636C-23.9201 292.038 -44.2634 288.045 -58.3461 268.203C-65.9407 257.501 -71.8135 245.904 -76.4254 233.656C-78.0309 229.392 -80.2863 225.633 -84.3317 223.345C-85.5057 222.685 -87.2979 222.29 -88.494 222.693C-90.297 223.305 -89.3183 225.094 -89.2337 226.515C-89.0061 230.524 -86.8369 234.36 -87.8781 239.116Z" fill="#202020"/>
</g>
<defs>
<clipPath id="clip0_254_4347">
<rect width="369" height="322" fill="white" transform="matrix(-1 0 0 1 247 0)"/>
</clipPath>
</defs>
</svg>
