<svg width="18" height="13" viewBox="0 0 18 13" fill="none" xmlns="http://www.w3.org/2000/svg">
<path d="M17.05 5.5H0.95C0.42533 5.5 0 5.92533 0 6.45V6.55C0 7.07467 0.42533 7.5 0.95 7.5H17.05C17.5747 7.5 18 7.07467 18 6.55V6.45C18 5.92533 17.5747 5.5 17.05 5.5Z" fill="white"/>
<path d="M17.05 10.5H0.95C0.42533 10.5 0 10.9253 0 11.45V11.55C0 12.0747 0.42533 12.5 0.95 12.5H17.05C17.5747 12.5 18 12.0747 18 11.55V11.45C18 10.9253 17.5747 10.5 17.05 10.5Z" fill="white"/>
<path d="M17.05 0.5H0.95C0.42533 0.5 0 0.925329 0 1.45V1.55C0 2.07467 0.42533 2.5 0.95 2.5H17.05C17.5747 2.5 18 2.07467 18 1.55V1.45C18 0.925329 17.5747 0.5 17.05 0.5Z" fill="white"/>
</svg>
